<svg width="105" height="120" viewBox="0 0 105 120" fill="none" xmlns="http://www.w3.org/2000/svg">
<path fill-rule="evenodd" clip-rule="evenodd" d="M63.1818 80.1484V57.0663L60.6848 59.9843V80.9447C58.0511 81.6729 55.2755 82.0711 52.4105 82.0711C49.5403 82.0711 46.7647 81.6729 44.1258 80.9447V54.7927H41.634V80.1432C29.8114 75.7688 21.3637 64.4163 21.3637 51.1308C21.3637 34.0732 35.289 20.1904 52.4105 20.1904C69.5268 20.1904 83.4521 34.0732 83.4521 51.1308C83.4521 64.4163 75.0044 75.7741 63.1818 80.1484ZM58.3245 89.1277C59.4599 89.1277 60.3851 90.0445 60.3851 91.1761C60.3851 92.3077 59.4599 93.2297 58.3245 93.2297H46.4913C45.3559 93.2297 44.4307 92.3077 44.4307 91.1761C44.4307 90.0445 45.3559 89.1277 46.4913 89.1277H58.3245ZM58.3245 104.394H46.4913C45.3559 104.394 44.4307 103.472 44.4307 102.34C44.4307 101.208 45.3559 100.286 46.4913 100.286H58.3245C59.4599 100.286 60.3851 101.208 60.3851 102.34C60.3851 103.472 59.4599 104.394 58.3245 104.394ZM90.5331 51.1308C90.5331 30.1808 73.4326 13.1338 52.4105 13.1338C31.3884 13.1338 14.2827 30.1808 14.2827 51.1308C14.2827 67.2401 24.4021 81.0338 38.6324 86.5503C37.8281 87.9071 37.355 89.4892 37.355 91.1761C37.355 93.2821 38.0804 95.2152 39.2842 96.7607C38.0804 98.3009 37.355 100.239 37.355 102.34C37.355 107.364 41.4553 111.45 46.4913 111.45H58.3245C63.3658 111.45 67.4661 107.364 67.4661 102.34C67.4661 100.239 66.7407 98.3009 65.5316 96.7607C66.7407 95.2152 67.4661 93.2821 67.4661 91.1761C67.4661 89.4892 66.993 87.9071 66.1834 86.5503C80.4137 81.0338 90.5331 67.2401 90.5331 51.1308Z" fill="url(#paint0_linear_926_2195)"/>
<path fill-rule="evenodd" clip-rule="evenodd" d="M52.4104 120C55.5014 120 58.009 117.501 58.009 114.415H46.8066C46.8066 117.501 49.3141 120 52.4104 120Z" fill="url(#paint1_linear_926_2195)"/>
<path fill-rule="evenodd" clip-rule="evenodd" d="M100.59 47.1965C98.1558 47.1965 96.1792 49.1663 96.1792 51.5919C96.1792 54.0227 98.1558 55.9872 100.59 55.9872C103.024 55.9872 105 54.0227 105 51.5919C105 49.1663 103.024 47.1965 100.59 47.1965Z" fill="url(#paint2_linear_926_2195)"/>
<path fill-rule="evenodd" clip-rule="evenodd" d="M8.82097 51.5919C8.82097 49.1663 6.8444 47.1965 4.41048 47.1965C1.97131 47.1965 0 49.1663 0 51.5919C0 54.0227 1.97131 55.9872 4.41048 55.9872C6.8444 55.9872 8.82097 54.0227 8.82097 51.5919Z" fill="url(#paint3_linear_926_2195)"/>
<path fill-rule="evenodd" clip-rule="evenodd" d="M93.5452 36.7085C94.3757 38.9873 96.9095 40.1608 99.1963 39.3331C101.488 38.5054 102.666 35.9803 101.835 33.7014C100.999 31.4173 98.4708 30.2438 96.1788 31.0715C93.8921 31.8993 92.7093 34.4243 93.5452 36.7085Z" fill="url(#paint4_linear_926_2195)"/>
<path fill-rule="evenodd" clip-rule="evenodd" d="M11.4548 66.4805C10.619 64.2017 8.09045 63.0229 5.79847 63.8559C3.51175 64.6836 2.32896 67.2087 3.1648 69.4876C3.99538 71.7717 6.52917 72.9452 8.8159 72.1175C11.1079 71.2845 12.2854 68.7646 11.4548 66.4805Z" fill="url(#paint5_linear_926_2195)"/>
<path fill-rule="evenodd" clip-rule="evenodd" d="M92.1731 24.1562C94.0393 22.5951 94.2811 19.8238 92.7146 17.964C91.1533 16.1042 88.3672 15.858 86.501 17.4191C84.6348 18.9803 84.393 21.7516 85.9595 23.6114C87.5261 25.4712 90.3069 25.7174 92.1731 24.1562Z" fill="url(#paint6_linear_926_2195)"/>
<path fill-rule="evenodd" clip-rule="evenodd" d="M12.8268 79.0326C10.9606 80.5938 10.7136 83.3651 12.2801 85.2249C13.8466 87.0847 16.6275 87.3256 18.4937 85.7645C20.3599 84.2086 20.6017 81.432 19.0404 79.5722C17.4739 77.7177 14.6877 77.4715 12.8268 79.0326Z" fill="url(#paint7_linear_926_2195)"/>
<path fill-rule="evenodd" clip-rule="evenodd" d="M74.3369 13.8987C76.4501 15.1089 79.1469 14.3912 80.3612 12.2852C81.5808 10.1844 80.8606 7.49693 78.7474 6.28153C76.6394 5.07137 73.9426 5.78908 72.723 7.88984C71.5034 9.99584 72.2289 12.6833 74.3369 13.8987Z" fill="url(#paint8_linear_926_2195)"/>
<path fill-rule="evenodd" clip-rule="evenodd" d="M60.0855 8.72801C62.4826 9.14711 64.7694 7.54928 65.1952 5.16039C65.6157 2.7715 64.0124 0.487383 61.6153 0.0682793C59.2182 -0.356063 56.9262 1.24177 56.5056 3.63066C56.0851 6.02479 57.6832 8.30366 60.0855 8.72801Z" fill="url(#paint9_linear_926_2195)"/>
<path fill-rule="evenodd" clip-rule="evenodd" d="M44.9145 8.728C47.3116 8.30365 48.9149 6.02478 48.4891 3.63065C48.0686 1.24176 45.7819 -0.350833 43.3847 0.0682707C40.9824 0.487374 39.379 2.77149 39.8048 5.16038C40.2254 7.54927 42.5174 9.1471 44.9145 8.728Z" fill="url(#paint10_linear_926_2195)"/>
<path fill-rule="evenodd" clip-rule="evenodd" d="M30.658 13.8987C32.766 12.6833 33.4914 9.99584 32.2718 7.88984C31.0575 5.78908 28.3555 5.07137 26.2475 6.28153C24.1395 7.49693 23.4141 10.1844 24.6337 12.2852C25.8533 14.3912 28.55 15.1089 30.658 13.8987Z" fill="url(#paint11_linear_926_2195)"/>
<path fill-rule="evenodd" clip-rule="evenodd" d="M12.8268 24.1562C14.6877 25.7174 17.4739 25.4712 19.0404 23.6114C20.6017 21.7516 20.3599 18.9803 18.4937 17.4191C16.6275 15.858 13.8466 16.1042 12.2801 17.964C10.7136 19.8238 10.9606 22.5951 12.8268 24.1562Z" fill="url(#paint12_linear_926_2195)"/>
<path fill-rule="evenodd" clip-rule="evenodd" d="M92.1731 79.0326C90.3069 77.4715 87.5261 77.7177 85.9595 79.5722C84.393 81.432 84.6348 84.2086 86.501 85.7645C88.3672 87.3256 91.1533 87.0847 92.7146 85.2249C94.2811 83.3651 94.0393 80.5938 92.1731 79.0326Z" fill="url(#paint13_linear_926_2195)"/>
<path fill-rule="evenodd" clip-rule="evenodd" d="M5.79847 39.3331C8.09045 40.1608 10.619 38.9873 11.4548 36.7085C12.2854 34.4243 11.1079 31.8993 8.8159 31.0715C6.52917 30.2438 3.99538 31.4173 3.1648 33.7014C2.32896 35.9803 3.51175 38.5054 5.79847 39.3331Z" fill="url(#paint14_linear_926_2195)"/>
<path fill-rule="evenodd" clip-rule="evenodd" d="M99.1963 63.8559C96.9095 63.0229 94.3757 64.2017 93.5452 66.4805C92.7093 68.7646 93.8921 71.2845 96.1788 72.1175C98.4708 72.9452 100.999 71.7717 101.835 69.4876C102.666 67.2087 101.488 64.6836 99.1963 63.8559Z" fill="url(#paint15_linear_926_2195)"/>
<path fill-rule="evenodd" clip-rule="evenodd" d="M66.0783 45.321H54.098C53.1307 45.321 52.4526 44.3623 52.7785 43.4507L56.4951 33.1408C57.0103 31.7106 55.1861 30.6052 54.1505 31.7158L37.8964 49.1348C37.0606 50.0254 37.6967 51.4818 38.9215 51.4818H51.1436C52.1109 51.4818 52.789 52.43 52.4684 53.3363L48.1525 65.6527C47.6426 67.1091 49.535 68.1936 50.5444 67.0201L67.1402 47.6208C67.9182 46.7145 67.2716 45.321 66.0783 45.321Z" fill="url(#paint16_linear_926_2195)"/>
<defs>
<linearGradient id="paint0_linear_926_2195" x1="52.4079" y1="-21.277" x2="52.4079" y2="136.029" gradientUnits="userSpaceOnUse">
<stop stop-color="#FEC64E"/>
<stop offset="1" stop-color="#FEAC4E"/>
</linearGradient>
<linearGradient id="paint1_linear_926_2195" x1="52.4078" y1="112.461" x2="52.4078" y2="121.396" gradientUnits="userSpaceOnUse">
<stop stop-color="#FEC64E"/>
<stop offset="1" stop-color="#FEAC4E"/>
</linearGradient>
<linearGradient id="paint2_linear_926_2195" x1="100.59" y1="44.1198" x2="100.59" y2="58.1849" gradientUnits="userSpaceOnUse">
<stop stop-color="#FEC64E"/>
<stop offset="1" stop-color="#FEAC4E"/>
</linearGradient>
<linearGradient id="paint3_linear_926_2195" x1="4.41048" y1="44.1198" x2="4.41048" y2="58.1849" gradientUnits="userSpaceOnUse">
<stop stop-color="#FEC64E"/>
<stop offset="1" stop-color="#FEAC4E"/>
</linearGradient>
<linearGradient id="paint4_linear_926_2195" x1="97.6891" y1="27.729" x2="97.6891" y2="41.7964" gradientUnits="userSpaceOnUse">
<stop stop-color="#FEC64E"/>
<stop offset="1" stop-color="#FEAC4E"/>
</linearGradient>
<linearGradient id="paint5_linear_926_2195" x1="7.30873" y1="60.5105" x2="7.30874" y2="74.5813" gradientUnits="userSpaceOnUse">
<stop stop-color="#FEC64E"/>
<stop offset="1" stop-color="#FEAC4E"/>
</linearGradient>
<linearGradient id="paint6_linear_926_2195" x1="89.337" y1="13.3143" x2="89.337" y2="27.3818" gradientUnits="userSpaceOnUse">
<stop stop-color="#FEC64E"/>
<stop offset="1" stop-color="#FEAC4E"/>
</linearGradient>
<linearGradient id="paint7_linear_926_2195" x1="15.6592" y1="74.9283" x2="15.6592" y2="88.9916" gradientUnits="userSpaceOnUse">
<stop stop-color="#FEC64E"/>
<stop offset="1" stop-color="#FEAC4E"/>
</linearGradient>
<linearGradient id="paint8_linear_926_2195" x1="76.5427" y1="2.6163" x2="76.5427" y2="16.6845" gradientUnits="userSpaceOnUse">
<stop stop-color="#FEC64E"/>
<stop offset="1" stop-color="#FEAC4E"/>
</linearGradient>
<linearGradient id="paint9_linear_926_2195" x1="60.8503" y1="-3.07817" x2="60.8503" y2="10.9935" gradientUnits="userSpaceOnUse">
<stop stop-color="#FEC64E"/>
<stop offset="1" stop-color="#FEAC4E"/>
</linearGradient>
<linearGradient id="paint10_linear_926_2195" x1="44.147" y1="-3.07635" x2="44.147" y2="10.9931" gradientUnits="userSpaceOnUse">
<stop stop-color="#FEC64E"/>
<stop offset="1" stop-color="#FEAC4E"/>
</linearGradient>
<linearGradient id="paint11_linear_926_2195" x1="28.4528" y1="2.6163" x2="28.4528" y2="16.6845" gradientUnits="userSpaceOnUse">
<stop stop-color="#FEC64E"/>
<stop offset="1" stop-color="#FEAC4E"/>
</linearGradient>
<linearGradient id="paint12_linear_926_2195" x1="15.6592" y1="13.3143" x2="15.6592" y2="27.3818" gradientUnits="userSpaceOnUse">
<stop stop-color="#FEC64E"/>
<stop offset="1" stop-color="#FEAC4E"/>
</linearGradient>
<linearGradient id="paint13_linear_926_2195" x1="89.337" y1="74.9283" x2="89.337" y2="88.9916" gradientUnits="userSpaceOnUse">
<stop stop-color="#FEC64E"/>
<stop offset="1" stop-color="#FEAC4E"/>
</linearGradient>
<linearGradient id="paint14_linear_926_2195" x1="7.30873" y1="27.729" x2="7.30874" y2="41.7964" gradientUnits="userSpaceOnUse">
<stop stop-color="#FEC64E"/>
<stop offset="1" stop-color="#FEAC4E"/>
</linearGradient>
<linearGradient id="paint15_linear_926_2195" x1="97.6891" y1="60.5105" x2="97.6891" y2="74.5813" gradientUnits="userSpaceOnUse">
<stop stop-color="#FEC64E"/>
<stop offset="1" stop-color="#FEAC4E"/>
</linearGradient>
<linearGradient id="paint16_linear_926_2195" x1="52.4983" y1="18.5732" x2="52.4983" y2="76.5813" gradientUnits="userSpaceOnUse">
<stop stop-color="#FEC64E"/>
<stop offset="1" stop-color="#FEAC4E"/>
</linearGradient>
</defs>
</svg>
